<?xml version="1.0" encoding="utf-8"?>
<!-- Generator: Adobe Illustrator 22.1.0, SVG Export Plug-In . SVG Version: 6.00 Build 0)  -->
<svg version="1.1" id="Layer_1" xmlns="http://www.w3.org/2000/svg" xmlns:xlink="http://www.w3.org/1999/xlink" x="0px" y="0px"
	 viewBox="0 0 50 50" style="enable-background:new 0 0 50 50;" xml:space="preserve">
<style type="text/css">
	.st0{fill:none;}
	.st1{fill:none;stroke:#fff;opacity:1;stroke-linecap:round;stroke-linejoin:round;stroke-miterlimit:10;}
</style>
<g>
	<rect class="st0" width="50" height="50"/>
</g>
<g>
	<path class="st1" d="M38.5,9.8c0,0.2,0,0.3,0,0.4c0,2.7,0,5.3,0,8c0,2.6,0,5.2,0,7.8c0,0.2-0.1,0.4-0.3,0.6
		c-1.2,0.9-2.4,1.8-3.7,2.4c-2.4,1.2-4.8,1.1-7.2-0.3c-1-0.6-2.1-1.2-3.1-1.7c-2.5-1.3-5.1-1.2-7.6,0c-0.9,0.4-1.7,0.9-2.5,1.4
		c0-0.1,0-0.2,0-0.2c0-5.3,0-10.6,0-16c0-0.1,0-0.3,0.1-0.3c1.5-1,3-1.8,4.7-2.1c2-0.4,3.8,0,5.5,0.9c1.1,0.6,2.1,1.2,3.2,1.8
		c1.2,0.6,2.4,1,3.8,0.9c1.3-0.1,2.6-0.5,3.7-1.2c1.1-0.6,2.1-1.4,3.1-2.1C38.3,9.9,38.4,9.8,38.5,9.8z"/>
	<line class="st1" x1="11.5" y1="12.8" x2="11.5" y2="39.4"/>
</g>
</svg>
