<?xml version="1.0" encoding="utf-8"?>
<!-- Generator: Adobe Illustrator 22.1.0, SVG Export Plug-In . SVG Version: 6.00 Build 0)  -->
<svg version="1.1" id="Layer_1" xmlns="http://www.w3.org/2000/svg" xmlns:xlink="http://www.w3.org/1999/xlink" x="0px" y="0px"
	 viewBox="0 0 50 50" style="enable-background:new 0 0 50 50;" xml:space="preserve">
<style type="text/css">
	.st0{fill:none;}
	.st1{fill:none;stroke:#fff; opacity:1;stroke-linecap:round;stroke-linejoin:round;stroke-miterlimit:10;}
</style>
<g>
	<rect class="st0" width="50" height="50"/>
</g>
<g>
	<circle class="st1" cx="24.5" cy="25.5" r="15"/>
	<path class="st1" d="M23.9,40.4C19.8,38,17,32.2,17,25.5c0-6.8,2.9-12.6,7.1-15"/>
	<path class="st1" d="M25.1,40.4C29.2,38,32,32.2,32,25.5c0-6.8-2.9-12.6-7.1-15"/>
	<path class="st1" d="M34.6,14.7c-2.7,2.4-6.2,3.9-10.1,3.9c-3.8,0-7.3-1.4-10-3.8"/>
	<path class="st1" d="M14.1,36.3c2.7-2.6,6.4-4.2,10.4-4.2c3.9,0,7.5,1.5,10.1,3.9"/>
	<line class="st1" x1="9.5" y1="25.5" x2="39.5" y2="25.5"/>
	<line class="st1" x1="24.5" y1="10.5" x2="24.5" y2="40.5"/>
</g>
</svg>
