<?xml version="1.0" encoding="utf-8"?>
<!-- Generator: Adobe Illustrator 22.1.0, SVG Export Plug-In . SVG Version: 6.00 Build 0)  -->
<svg version="1.1" id="Layer_1" xmlns="http://www.w3.org/2000/svg" xmlns:xlink="http://www.w3.org/1999/xlink" x="0px" y="0px"
	 viewBox="0 0 50 50" style="enable-background:new 0 0 50 50;" xml:space="preserve">
<style type="text/css">
	.st0{fill:none;}
	.st1{fill:none;stroke:#fff; opacity:1;stroke-linecap:round;stroke-linejoin:round;stroke-miterlimit:10;}
</style>
<g>
	<rect class="st0" width="50" height="50"/>
</g>
<g>
	<g>
		<path class="st1" d="M27.6,11.5c19.1,5.4,12.5,23.8,6.7,29"/>
		<path class="st1" d="M23.5,14.2c0,11.2,13.7,9.9,10.8,26.3"/>
		<path class="st1" d="M20.6,11.5c-4.1,0.8-12.2,5.9-7.2,20.3"/>
		<path class="st1" d="M17,21.7c-5,2.8-4.2,8.1-3.6,10"/>
		<path class="st1" d="M15.2,28.1c1.6,6.5,4.1,9.9,8.3,10.4"/>
		<path class="st1" d="M23.5,38.5c3.5-0.2,6.6-1.5,8.2-6.7"/>
	</g>
	<path class="st1" d="M23.1,26.6c0-0.6-2.9-1.1-4.9-1.1"/>
</g>
</svg>
