<?xml version="1.0" encoding="utf-8"?>
<!-- Generator: Adobe Illustrator 22.1.0, SVG Export Plug-In . SVG Version: 6.00 Build 0)  -->
<svg version="1.1" id="Layer_1" xmlns="http://www.w3.org/2000/svg" xmlns:xlink="http://www.w3.org/1999/xlink" x="0px" y="0px"
	 viewBox="0 0 50 50" style="enable-background:new 0 0 50 50;" xml:space="preserve">
<style type="text/css">
	.st0{fill:none;}
	.st1{fill:none;stroke:#fff;stroke-linecap:round;stroke-linejoin:round;stroke-miterlimit:10;opacity:1;}
</style>
<g>
	<rect class="st0" width="50" height="50"/>
</g>
<path class="st1" d="M10.3,22.3c-0.4-1.3-0.4-2.7,0-4c0.2-0.6,0.3-1.2,0.6-1.7c1.5-2.8,4.6-4.4,7.4-3.9c1.5,0.3,2.8,1.1,3.8,2.2
	c1.1,1.2,2,2.4,3,3.7c0,0,0.1-0.1,0.2-0.2c1-1.2,1.9-2.5,3-3.7c1.7-1.8,4-2.8,6.9-1.6c3.5,1.4,5.3,4.9,4.7,8.6
	c-0.4,2.2-1.4,4.1-2.9,5.9c-2.4,2.9-5.3,5.2-8.3,7.5c-1.2,1-2.4,1.9-3.6,2.9c-0.5-0.4-1-0.9-1.5-1.3c-2.8-2.4-5.7-4.7-8.4-7.1
	c-1.6-1.4-3.1-3-4-5C10.8,23.9,10.6,23.1,10.3,22.3z"/>
</svg>
