<?xml version="1.0" encoding="utf-8"?>
<!-- Generator: Adobe Illustrator 22.1.0, SVG Export Plug-In . SVG Version: 6.00 Build 0)  -->
<svg version="1.1" id="Layer_1" xmlns="http://www.w3.org/2000/svg" xmlns:xlink="http://www.w3.org/1999/xlink" x="0px" y="0px"
	 viewBox="0 0 50 50" style="enable-background:new 0 0 50 50;" xml:space="preserve">
<style type="text/css">
	.st0{fill:none;}
	.st1{fill:none;stroke:#fff; opacity:1;stroke-linecap:round;stroke-linejoin:round;stroke-miterlimit:10;}
</style>
<g>
	<rect class="st0" width="50" height="50"/>
</g>
<g>
	<path class="st1" d="M19.8,18.4v12.1c-2.7,0-4.9,2.2-4.9,4.9c0,2.7,2.2,4.9,4.9,4.9c1.6,0,3-0.8,3.9-1.9c0.9,1.2,2.3,1.9,3.9,1.9
		c2.7,0,4.9-2.2,4.9-4.9c0-2.7-2.2-4.9-4.9-4.9V18.4"/>
	<path class="st1" d="M28.4,16c0,2.2-2.1,4-4.7,4s-4.7-1.8-4.7-4s2.1-5.7,4.7-5.7S28.4,13.8,28.4,16z"/>
	<line class="st1" x1="23.7" y1="10.3" x2="23.7" y2="13.7"/>
</g>
</svg>
