<?xml version="1.0" encoding="utf-8"?>
<!-- Generator: Adobe Illustrator 22.1.0, SVG Export Plug-In . SVG Version: 6.00 Build 0)  -->
<svg version="1.1" id="Layer_1" xmlns="http://www.w3.org/2000/svg" xmlns:xlink="http://www.w3.org/1999/xlink" x="0px" y="0px"
	 viewBox="0 0 50 50" style="enable-background:new 0 0 50 50;" xml:space="preserve">
<style type="text/css">
	.st0{fill:none;}
	.st1{fill:none;stroke:#fff;opacity:1;stroke-linecap:round;stroke-linejoin:round;stroke-miterlimit:10;}
</style>
<g>
	<rect class="st0" width="50" height="50"/>
</g>
<path class="st1" d="M32.3,9.7c1.8,0,3.6,0,5.4,0c1.3,0,1.8,0.5,1.8,1.8c0,3.6,0,7.3,0,10.9c0,1.1-0.4,2.1-1.2,2.9
	c-4.6,4.6-9.2,9.2-13.8,13.8c-0.9,0.9-1.6,0.8-2.5,0c-4-4-7.9-7.9-11.9-11.9c-0.8-0.8-0.8-1.6,0-2.5c4.6-4.6,9.2-9.2,13.8-13.8
	c0.8-0.8,1.8-1.2,2.9-1.2C28.7,9.7,30.5,9.7,32.3,9.7z M30.9,21.2c1.5,0,2.9-1.3,2.9-2.8c0-1.6-1.3-2.9-2.8-3
	c-1.5,0-2.9,1.3-2.9,2.9C28,19.9,29.3,21.2,30.9,21.2z"/>
</svg>
